<?xml version="1.0" encoding="UTF-8" standalone="no"?>
<!-- Created with Inkscape (http://www.inkscape.org/) -->

<svg
   width="95.25mm"
   height="95.25mm"
   viewBox="0 0 95.25 95.25"
   version="1.1"
   id="svg1"
   xml:space="preserve"
   inkscape:version="1.4 (86a8ad7, 2024-10-11)"
   sodipodi:docname="slogo.svg"
   xmlns:inkscape="http://www.inkscape.org/namespaces/inkscape"
   xmlns:sodipodi="http://sodipodi.sourceforge.net/DTD/sodipodi-0.dtd"
   xmlns="http://www.w3.org/2000/svg"
   xmlns:svg="http://www.w3.org/2000/svg"><sodipodi:namedview
     id="namedview1"
     pagecolor="#ffffff"
     bordercolor="#000000"
     borderopacity="0.25"
     inkscape:showpageshadow="2"
     inkscape:pageopacity="0.0"
     inkscape:pagecheckerboard="0"
     inkscape:deskcolor="#d1d1d1"
     inkscape:document-units="mm"
     inkscape:zoom="5.68"
     inkscape:cx="54.841549"
     inkscape:cy="165.40493"
     inkscape:window-width="1920"
     inkscape:window-height="1111"
     inkscape:window-x="-9"
     inkscape:window-y="-9"
     inkscape:window-maximized="1"
     inkscape:current-layer="layer1" /><defs
     id="defs1" /><g
     inkscape:label="Layer 1"
     inkscape:groupmode="layer"
     id="layer1"
     transform="translate(-57.414585,-23.018749)"><path
       style="fill:#000000"
       d="m 220.1337,85.821969 c 2e-4,-0.126094 0.69436,-0.433183 1.54258,-0.68242 4.00841,-1.177817 7.51024,-4.93674 8.67541,-9.312314 0.42451,-1.5942 0.46325,-4.832884 0.0778,-6.506402 -1.28563,-5.582126 -7.11104,-10.292857 -12.75561,-10.314839 -1.12114,-0.0044 -2.30307,-0.932374 -2.30307,-1.808287 0,-0.929945 1.01302,-1.899791 1.98437,-1.899791 0.9998,0 1.98437,0.977189 1.98437,1.969487 0,1.168053 0.57126,1.507573 3.19189,1.897042 6.33319,0.941218 10.87981,5.242427 11.89721,11.255039 1.08954,6.438946 -2.94501,12.815304 -9.40056,14.856991 -1.58092,0.499997 -4.89494,0.869351 -4.89442,0.545494 z m -5.48093,-4.184981 c -3.66808,-1.146361 -6.19312,-4.128082 -6.78884,-8.016676 l -0.17226,-1.124479 h 1.95383 1.95384 l 0.12195,1.269166 c 0.28907,3.008405 2.59012,6.087803 5.5849,7.474036 l 1.63652,0.757515 -1.5875,-0.0056 c -0.87313,-0.0031 -2.08922,-0.162359 -2.70244,-0.354004 z m 5.52662,-3.54045 c -0.58451,-0.169882 -0.55663,-0.220277 0.55548,-1.004168 1.67421,-1.180091 2.40139,-2.788896 2.26052,-5.00115 -0.20609,-3.236637 -2.24333,-5.049102 -6.11384,-5.43929 -6.01399,-0.606273 -10.05408,-5.730263 -8.9057,-11.29499 0.41112,-1.992224 1.09671,-3.293718 2.55794,-4.855885 1.71753,-1.836177 3.57925,-2.674553 6.25556,-2.817023 l 2.15336,-0.114631 -1.89223,0.959132 c -2.18335,1.106704 -3.56275,2.506295 -4.5543,4.620964 -0.59996,1.279539 -0.69722,1.837584 -0.69722,4.000503 0,2.171138 0.0962,2.718857 0.70649,4.02074 1.48203,3.161742 4.29488,5.06377 8.13663,5.50193 2.59269,0.295704 3.72244,0.797223 4.90315,2.176622 2.93908,3.433647 0.85697,8.668746 -3.69211,9.28316 -0.58208,0.07862 -1.33526,0.06246 -1.67373,-0.03591 z m 2.78954,-22.023791 c -0.18574,-1.384855 -1.2854,-3.039829 -2.49342,-3.752576 -0.83463,-0.492446 -0.88854,-0.583691 -0.44717,-0.756881 2.61864,-1.027542 6.14554,1.40796 6.84498,4.726814 L 227.05454,57.15 h -1.97056 -1.97056 z m 7.90464,0.746523 c -0.0501,-0.181901 -0.21255,-1.124368 -0.36102,-2.094372 -0.60044,-3.922926 -3.44175,-7.712619 -7.17362,-9.568078 -1.07458,-0.534272 -2.16888,-0.971404 -2.43178,-0.971404 -0.2629,0 -0.55159,-0.119062 -0.64153,-0.264583 -0.23555,-0.38114 1.53288,-0.323049 3.61783,0.118841 5.20318,1.102778 9.3142,5.206897 10.41391,10.396423 0.60086,2.83545 0.6668,2.713903 -1.47233,2.713903 -1.26335,0 -1.88962,-0.106139 -1.95146,-0.33073 z"
       id="path1"
       sodipodi:nodetypes="sssccsssssssscscccssccccssssssscssscssssssssscccssssssssss" /><path
       style="fill:#000000"
       d="m 70.91494,91.63099 c 2e-4,-0.126094 0.69436,-0.433183 1.54258,-0.68242 4.00841,-1.177817 7.51024,-4.93674 8.67541,-9.312314 0.42451,-1.5942 0.46325,-4.832884 0.0778,-6.506402 -1.28563,-5.582126 -7.11104,-10.292857 -12.75561,-10.314839 -1.12114,-0.0044 -2.30307,-0.932374 -2.30307,-1.808287 0,-0.929945 1.01302,-1.899791 1.98437,-1.899791 0.9998,0 1.98437,0.977189 1.98437,1.969487 0,1.168053 0.57126,1.507573 3.19189,1.897042 6.33319,0.941218 10.87981,5.242427 11.89721,11.255039 1.08954,6.438946 -2.94501,12.815304 -9.40056,14.856991 -1.58092,0.499997 -4.89494,0.869351 -4.89442,0.545494 z m -5.48093,-4.184981 c -3.66808,-1.146361 -6.19312,-4.128082 -6.78884,-8.016676 l -0.17226,-1.124479 h 1.95383 1.95384 l 0.12195,1.269166 c 0.28907,3.008405 2.59012,6.087803 5.5849,7.474036 l 1.63652,0.757515 -1.5875,-0.0056 c -0.87313,-0.0031 -2.08922,-0.162359 -2.70244,-0.354004 z m 5.52662,-3.54045 c -0.58451,-0.169882 -0.55663,-0.220277 0.55548,-1.004168 1.67421,-1.180091 2.40139,-2.788896 2.26052,-5.00115 -0.20609,-3.236637 -2.24333,-5.049102 -6.11384,-5.43929 -6.01399,-0.606273 -10.05408,-5.730263 -8.9057,-11.29499 0.41112,-1.992224 1.09671,-3.293718 2.55794,-4.855885 1.71753,-1.836177 3.57925,-2.674553 6.25556,-2.817023 l 2.15336,-0.114631 -1.89223,0.959132 c -2.18335,1.106704 -3.56275,2.506295 -4.5543,4.620964 -0.59996,1.279539 -0.69722,1.837584 -0.69722,4.000503 0,2.171138 0.0962,2.718857 0.70649,4.02074 1.48203,3.161742 4.29488,5.06377 8.13663,5.50193 2.59269,0.295704 3.72244,0.797223 4.90315,2.176622 2.93908,3.433647 0.85697,8.668746 -3.69211,9.28316 -0.58208,0.07862 -1.33526,0.06246 -1.67373,-0.03591 z m 2.78954,-22.023791 c -0.18574,-1.384855 -1.2854,-3.039829 -2.49342,-3.752576 -0.83463,-0.492446 -0.88854,-0.583691 -0.44717,-0.756881 2.61864,-1.027542 6.14554,1.40796 6.84498,4.726814 l 0.18122,0.859896 h -1.97056 -1.97056 z m 7.90464,0.746523 c -0.0501,-0.181901 -0.21255,-1.124368 -0.36102,-2.094372 -0.60044,-3.922926 -3.44175,-7.712619 -7.17362,-9.568078 -1.07458,-0.534272 -2.16888,-0.971404 -2.43178,-0.971404 -0.2629,0 -0.55159,-0.119062 -0.64153,-0.264583 -0.23555,-0.38114 1.53288,-0.323049 3.61783,0.118841 5.20318,1.102778 9.3142,5.206897 10.41391,10.396423 0.60086,2.83545 0.6668,2.713903 -1.47233,2.713903 -1.26335,0 -1.88962,-0.106139 -1.95146,-0.33073 z"
       id="path1-4"
       sodipodi:nodetypes="sssccsssssssscscccssccccssssssscssscssssssssscccssssssssss" /></g></svg>
